<?xml version="1.0" encoding="UTF-8" standalone="no"?>
<!-- Created with Inkscape (http://www.inkscape.org/) -->

<svg
   xmlns:dc="http://purl.org/dc/elements/1.1/"
   xmlns:cc="http://creativecommons.org/ns#"
   xmlns:rdf="http://www.w3.org/1999/02/22-rdf-syntax-ns#"
   xmlns:svg="http://www.w3.org/2000/svg"
   xmlns="http://www.w3.org/2000/svg"
   xmlns:sodipodi="http://sodipodi.sourceforge.net/DTD/sodipodi-0.dtd"
   xmlns:inkscape="http://www.inkscape.org/namespaces/inkscape"
   width="215"
   height="20"
   id="svg3099"
   version="1.1"
   inkscape:version="0.48.3.1 r9886"
   sodipodi:docname="social.svg">
  <defs
     id="defs3101">
    <clipPath
       clipPathUnits="userSpaceOnUse"
       id="clipPath16">
      <path
         inkscape:connector-curvature="0"
         d="M 0,216 216,216 216,0 0,0 0,216 z"
         id="path18" />
    </clipPath>
    <clipPath
       clipPathUnits="userSpaceOnUse"
       id="clipPath28">
      <path
         inkscape:connector-curvature="0"
         d="m 121.724,55.661 c 0.343,1.114 0.39,2.832 -3.038,2.054 l 0,0 c 0,0 -9.395,-1.342 -9.843,-12.303 l 0,0 -0.214,-20.989 -2.258,0 -0.213,20.989 c -0.448,10.961 -9.842,12.303 -9.842,12.303 l 0,0 c -3.428,0.778 -3.383,-0.938 -3.04,-2.052 l 0,0 c -3.371,5.738 -12.394,4.996 -12.394,4.996 l 0,0 c -3.133,-1.117 -0.224,-3.131 -0.224,-3.131 l 0,0 c 4.921,-1.788 5.369,-7.158 5.369,-7.158 l 0,0 0,-15.18 0.52,-11.728 c 1.117,-5.224 3.874,-8.312 6.578,-10.129 l 0,0 28.803,0.033 c 3.484,2.365 7.047,6.846 7.047,15.307 l 0,0 0,21.697 c 0,0 0.447,5.37 5.369,7.158 l 0,0 c 0,0 2.906,2.014 -0.225,3.131 l 0,0 c 0,0 -0.382,0.031 -1.017,0.032 l 0,0 c -2.455,0 -8.7,-0.469 -11.378,-5.03 m -27.197,-21.619 0,16.552 c 0,1.617 -0.285,2.977 -0.773,4.12 l 0,0 c 3.239,-2.526 3.457,-8.855 3.457,-8.855 l 0,0 0,-20.663 c -3.225,2.282 -2.684,8.846 -2.684,8.846 m 23.264,11.817 c 0,0 0.217,6.329 3.456,8.855 l 0,0 c -0.487,-1.143 -0.772,-2.503 -0.772,-4.12 l 0,0 0,-16.552 c 0,0 0.539,-6.101 -2.684,-8.612 l 0,0 0,20.429 z"
         id="path30" />
    </clipPath>
    <clipPath
       clipPathUnits="userSpaceOnUse"
       id="clipPath40">
      <path
         inkscape:connector-curvature="0"
         d="M 0,216 216,216 216,0 0,0 0,216 z"
         id="path42" />
    </clipPath>
  </defs>
  <sodipodi:namedview
     id="base"
     pagecolor="#ffffff"
     bordercolor="#666666"
     borderopacity="1.0"
     inkscape:pageopacity="0.0"
     inkscape:pageshadow="2"
     inkscape:zoom="7.9195959"
     inkscape:cx="111.63512"
     inkscape:cy="15.433843"
     inkscape:document-units="px"
     inkscape:current-layer="layer1"
     showgrid="false"
     inkscape:window-width="1920"
     inkscape:window-height="1034"
     inkscape:window-x="0"
     inkscape:window-y="24"
     inkscape:window-maximized="1" />
  <metadata
     id="metadata3104">
    <rdf:RDF>
      <cc:Work
         rdf:about="">
        <dc:format>image/svg+xml</dc:format>
        <dc:type
           rdf:resource="http://purl.org/dc/dcmitype/StillImage" />
        <dc:title />
      </cc:Work>
    </rdf:RDF>
  </metadata>
  <g
     inkscape:label="Layer 1"
     inkscape:groupmode="layer"
     id="layer1"
     transform="translate(0,-1032.3622)">
    <g
       id="g2995"
       transform="translate(-357.3405,130.16837)">
      <path
         inkscape:export-ydpi="90"
         inkscape:export-xdpi="90"
         inkscape:export-filename="/home/sta/facebook.png"
         inkscape:connector-curvature="0"
         id="path3355-8"
         d="m 400.15782,902.19382 c -5.52285,0 -10,4.47715 -10,10 0,5.52285 4.47715,10 10,10 5.52285,0 10,-4.47715 10,-10 0,-5.52285 -4.47715,-10 -10,-10 z m 0.71875,3.65625 c 1.65318,0 2.34375,0.21875 2.34375,0.21875 l -0.3125,1.96875 c 0,0 -0.5527,-0.15625 -1.0625,-0.15625 -0.50981,0 -0.96875,0.17768 -0.96875,0.6875 l 0,1.46875 2.09375,0 -0.15625,1.90625 -1.9375,0 0,6.59375 -2.46875,0 0,-6.59375 -1.28125,0 0,-1.90625 1.28125,0 0,-1.28125 c 0,-0.56078 0.0296,-1.43226 0.4375,-1.96875 0.4297,-0.56815 1.01649,-0.9375 2.03125,-0.9375 z"
         style="fill:#666666;fill-opacity:1;fill-rule:nonzero" />
      <path
         inkscape:export-ydpi="90"
         inkscape:export-xdpi="90"
         inkscape:export-filename="/home/sta/twitter.png"
         inkscape:connector-curvature="0"
         id="path3355"
         d="m 497.53425,902.19383 c -5.52285,0 -10,4.47715 -10,10 0,5.52285 4.47715,10 10,10 5.52285,0 10,-4.47715 10,-10 0,-5.52285 -4.47715,-10 -10,-10 z m 2.875,3.9375 c 0.87749,0 1.66217,0.37587 2.21875,0.96875 0.69505,-0.13677 1.34798,-0.40034 1.9375,-0.75 -0.22773,0.71247 -0.71377,1.30984 -1.34375,1.6875 0.61725,-0.0738 1.20283,-0.22608 1.75,-0.46875 -0.40906,0.61188 -0.93503,1.13235 -1.53125,1.5625 0.006,0.13099 0,0.27401 0,0.40625 0,4.03199 -3.04396,8.6875 -8.65625,8.6875 -1.72311,0 -3.33719,-0.5091 -4.6875,-1.375 0.2387,0.0284 0.47241,0.0312 0.71875,0.0312 1.42958,0 2.76824,-0.46298 3.8125,-1.28125 -1.33515,-0.0246 -2.48667,-0.91296 -2.875,-2.125 0.18632,0.0355 0.39717,0.0625 0.59375,0.0625 0.27831,0 0.52521,-0.0552 0.78125,-0.125 -1.39582,-0.28031 -2.4375,-1.5217 -2.4375,-3 0,-0.0126 -2.8e-4,-0.0187 0,-0.0312 0.41135,0.22862 0.87482,0.3592 1.375,0.375 -0.81873,-0.54716 -1.34375,-1.47264 -1.34375,-2.53125 0,-0.5592 0.14359,-1.08066 0.40625,-1.53125 1.50487,1.84601 3.74535,3.06025 6.28125,3.1875 -0.0521,-0.22334 -0.0625,-0.44831 -0.0625,-0.6875 0,-1.685 1.37739,-3.0625 3.0625,-3.0625 z"
         style="fill:#666666;fill-opacity:1;fill-rule:nonzero" />
      <path
         inkscape:export-ydpi="90"
         inkscape:export-xdpi="90"
         inkscape:export-filename="/home/sta/linkedin.png"
         inkscape:connector-curvature="0"
         id="path3355-3"
         d="m 367.699,902.19382 c -5.52285,0 -10,4.47715 -10,10 0,5.52285 4.47715,10 10,10 5.52285,0 10,-4.47715 10,-10 0,-5.52285 -4.47715,-10 -10,-10 z m -3.5,3.75 c 0.84072,0 1.359,0.55585 1.375,1.28125 0,0.70964 -0.54934,1.28125 -1.40625,1.28125 -0.82474,0 -1.375,-0.57161 -1.375,-1.28125 0,-0.7254 0.56532,-1.28125 1.40625,-1.28125 z m 7.25,3.375 c 1.61732,0 2.8125,1.07258 2.8125,3.34375 l 0,4.25 -2.4375,0 0,-3.96875 c 0,-0.99389 -0.36048,-1.65625 -1.25,-1.65625 -0.679,0 -1.10357,0.43341 -1.28125,0.875 -0.065,0.15777 -0.0625,0.40399 -0.0625,0.625 l 0,4.125 -2.46875,0 c 0,0 0.0322,-6.71258 0,-7.40625 l 2.46875,0 0,1.03125 c 0.32735,-0.5035 0.92124,-1.21875 2.21875,-1.21875 z m -8.5,0.1875 2.46875,0 0,7.40625 -2.46875,0 0,-7.40625 z"
         style="fill:#666666;fill-opacity:1;fill-rule:nonzero" />
      <path
         inkscape:export-ydpi="90"
         inkscape:export-xdpi="90"
         inkscape:export-filename="/home/sta/blog.png"
         inkscape:connector-curvature="0"
         id="path3355-35"
         d="m 529.99305,902.19382 c -5.52285,0 -10,4.47715 -10,10 0,5.52285 4.47715,10 10,10 5.52285,0 10,-4.47715 10,-10 0,-5.52285 -4.47715,-10 -10,-10 z m -6.1875,3.8125 c 6.79461,0 12.34375,5.55053 12.34375,12.375 l -2.375,0 c 0,-5.51636 -4.48212,-10 -9.96875,-10 l 0,-2.375 z m 0,4.1875 c 4.48594,0 8.15625,3.68319 8.15625,8.1875 l -2.375,0 c 0,-1.55095 -0.59825,-2.99935 -1.6875,-4.09375 -1.08767,-1.09294 -2.55399,-1.71875 -4.09375,-1.71875 l 0,-2.375 z m 1.65625,4.875 c 0.9073,0 1.625,0.74872 1.625,1.65625 0,0.90752 -0.7177,1.625 -1.625,1.625 -0.90713,0 -1.65625,-0.71748 -1.65625,-1.625 0,-0.90753 0.74912,-1.65625 1.65625,-1.65625 z"
         style="fill:#666666;fill-opacity:1;fill-rule:nonzero" />
      <path
         inkscape:export-ydpi="90"
         inkscape:export-xdpi="90"
         inkscape:export-filename="/home/sta/google-plus.png"
         inkscape:connector-curvature="0"
         id="path3355-5-0"
         d="m 432.61657,902.19383 c -5.52285,0 -10,4.47715 -10,10 0,5.52285 4.47715,10 10,10 5.52285,0 10,-4.47715 10,-10 0,-5.52285 -4.47715,-10 -10,-10 z m -2.5,3.8125 3.8125,0 c 0,0.57696 -1.75,0.37837 -1.75,0.6875 0.98005,0.44149 1.09375,1.19252 1.09375,2.4375 0,2.07503 -1.9375,2.33576 -1.9375,3.21875 0,0.88299 2.59375,1.5914 2.59375,3.78125 0,3.65555 -4.53125,3.4375 -4.53125,3.4375 0,0 -3.90625,0.16188 -3.90625,-2.78125 0,-2.94313 4.42953,-2.84375 4.65625,-2.84375 -0.0559,-0.67383 -0.5,-0.54251 -0.5,-0.875 l 0,-0.84375 c 0,0 -3.34375,0.37441 -3.34375,-2.875 0,-3.24958 3.8125,-3.34375 3.8125,-3.34375 z m 7.5,0 0.78125,0 0,2.65625 2.625,0 0,0.78125 -2.625,0 0,2.625 -0.78125,0 0,-2.625 -2.625,0 0,-0.78125 2.625,0 0,-2.65625 z m -8.15625,0.6875 c -0.1184,-0.002 -0.22726,-4.4e-4 -0.34375,0.0312 -0.932,0.25331 -1.41735,1.50759 -1.0625,2.8125 0.35498,1.30516 1.41163,2.15955 2.34375,1.90625 0.932,-0.25362 1.38635,-1.50728 1.03125,-2.8125 -0.31049,-1.1418 -1.13993,-1.92637 -1.96875,-1.9375 z m 0.28125,7.8125 c -1.56471,0.1059 -2.79625,1.10872 -2.71875,2.25 0.0771,1.14129 1.43529,1.98103 3,1.875 1.56497,-0.10597 2.7648,-1.1084 2.6875,-2.25 -0.0774,-1.14122 -1.40359,-1.98097 -2.96875,-1.875 z"
         style="fill:#666666;fill-opacity:1;fill-rule:nonzero" />
      <path
         inkscape:export-ydpi="90"
         inkscape:export-xdpi="90"
         inkscape:export-filename="/home/sta/xing.png"
         inkscape:connector-curvature="0"
         id="path3355-8-9"
         d="m 562.45189,902.19382 c -5.52285,0 -10,4.47715 -10,10 0,5.52285 4.47715,10 10,10 5.52285,0 10,-4.47715 10,-10 0,-5.52285 -4.47715,-10 -10,-10 z m 3.3125,3.5625 1.875,0 c 0.11197,0 0.2027,0.0172 0.25,0.0937 0.0488,0.0794 0.0515,0.20983 0,0.3125 l -4.125,7.28125 2.625,4.78125 c 0.0522,0.10309 0.0494,0.20185 0,0.28125 -0.0473,0.0764 -0.10678,0.125 -0.21875,0.125 l -1.875,0 c -0.28478,0 -0.4079,-0.17897 -0.5,-0.34375 0,0 -2.64925,-4.83105 -2.65625,-4.84375 0.13183,-0.23324 4.125,-7.34375 4.125,-7.34375 0.0997,-0.17915 0.2224,-0.34375 0.5,-0.34375 z m -7.8125,2.53125 1.875,0 c 0.2852,0 0.4075,0.17896 0.5,0.34375 0,0 1.27325,2.2377 1.28125,2.25 -0.0752,0.13267 -2,3.53125 -2,3.53125 -0.0951,0.17155 -0.22198,0.375 -0.5,0.375 l -1.875,0 c -0.11197,0 -0.17145,-0.0485 -0.21875,-0.125 -0.049,-0.0794 -0.0516,-0.20983 0,-0.3125 l 1.96875,-3.46875 -1.25,-2.1875 c -0.0519,-0.10352 -0.0802,-0.20185 -0.0312,-0.28125 0.0473,-0.0769 0.13803,-0.125 0.25,-0.125 z"
         style="fill:#666666;fill-opacity:1;fill-rule:nonzero" />
      <path
         inkscape:export-ydpi="90"
         inkscape:export-xdpi="90"
         inkscape:export-filename="/home/sta/github.png"
         inkscape:connector-curvature="0"
         d="m 471.21573,913.52171 c 0.16765,-0.60404 0.21809,-1.29915 0.21809,-2.07431 0,-1.11168 -0.4177,-2.00104 -1.09577,-2.67778 0.11857,-0.3824 0.27687,-1.23191 -0.15807,-2.31921 0,0 -0.76702,-0.24358 -2.50212,0.91764 -0.67974,-0.16988 -1.40313,-0.25371 -2.12763,-0.25371 -0.79707,0 -1.6025,0.10154 -2.35372,0.30759 -1.79076,-1.22178 -2.58115,-0.97152 -2.58115,-0.97152 -0.5161,1.29025 -0.19705,2.24552 -0.10009,2.48275 -0.60649,0.65447 -0.97675,1.48996 -0.97675,2.51424 0,0.77337 0.0882,1.46704 0.30325,2.06997 l 0.0281,0.0759 c 0.0472,0.12479 0.10008,0.24592 0.15919,0.36291 0,0 0.0198,0.0567 0.0387,0.0735 0.60449,1.12671 1.79622,1.85444 3.91639,2.08298 -0.30103,0.20217 -0.60784,0.54594 -0.73241,1.1276 -0.41,0.19604 -1.70804,0.67485 -2.48686,-0.66471 0,0 -0.43594,-0.79708 -1.27043,-0.85953 0,0 -0.80943,-0.0123 -0.0559,0.5044 0,0 0.54181,0.25527 0.91542,1.21444 0,0 0.48748,1.6359 2.84009,1.11101 l 0,1.6899 c 0,0 -0.0497,0.5977 -0.5977,0.79686 0,0 -0.32373,0.2242 0.025,0.34856 0,0 1.51902,0.12457 1.51902,-1.12048 l 0,-1.84265 c 0,0 -0.0601,-0.73084 0.29868,-0.98476 l 0,3.02656 c 0,0 -0.0248,0.72217 -0.39831,0.99613 0,0 -0.24904,0.44808 0.29879,0.32373 0,0 1.04577,-0.14939 1.09564,-1.36962 l 0.0238,-3.06285 0.25126,0 0.0239,3.06285 c 0.0497,1.22023 1.09565,1.36962 1.09565,1.36962 0.5476,0.12435 0.29868,-0.32373 0.29868,-0.32373 -0.37349,-0.27396 -0.39832,-0.99613 -0.39832,-0.99613 l 0,-3.00052 c 0.35881,0.27943 0.29881,0.95872 0.29881,0.95872 l 0,1.84265 c 0,1.24505 1.5189,1.12048 1.5189,1.12048 0.34854,-0.12436 0.0251,-0.34856 0.0251,-0.34856 -0.54793,-0.19916 -0.59771,-0.79686 -0.59771,-0.79686 l 0,-2.4154 c 0,-0.94191 -0.39664,-1.44075 -0.78449,-1.70403 2.26099,-0.22421 3.34596,-0.95427 3.84601,-2.08867 l 0.0317,-0.0739 c 0.0475,-0.11455 0.0887,-0.23378 0.12546,-0.35635 m -6.11855,-11.4036 c -5.52285,0 -10,4.47715 -10,10 0,5.52285 4.47715,10 10,10 5.52285,0 10,-4.47715 10,-10 0,-5.52285 -4.47715,-10 -10,-10 z m 0,0.75 c 5.10863,0 9.25,4.14137 9.25,9.25 0,5.10863 -4.14137,9.25 -9.25,9.25 -5.10863,0 -9.25,-4.14137 -9.25,-9.25 0,-5.10863 4.14137,-9.25 9.25,-9.25 z"
         style="fill:#666666;fill-opacity:1;fill-rule:nonzero;stroke:none"
         id="path50" />
    </g>
  </g>
</svg>
